<mxfile host="app.diagrams.net" modified="2021-03-29T22:42:44.770Z" agent="5.0 (Windows NT 10.0; Win64; x64) AppleWebKit/537.36 (KHTML, like Gecko) Chrome/89.0.4389.90 Safari/537.36" etag="ITDbc11zYJ0trgiClo-Q" version="14.4.3" type="github">
  <diagram name="Page-1" id="e7e014a7-5840-1c2e-5031-d8a46d1fe8dd">
    <mxGraphModel dx="1157" dy="693" grid="1" gridSize="10" guides="1" tooltips="1" connect="1" arrows="1" fold="1" page="1" pageScale="1" pageWidth="1169" pageHeight="826" background="#ffffff" math="0" shadow="0">
      <root>
        <mxCell id="0" />
        <mxCell id="1" parent="0" />
        <mxCell id="3ZGjx4XU49EVozfAazmH-41" value="&lt;font style=&quot;font-size: 28px&quot;&gt;Università Sapienza Roma&amp;nbsp;&lt;/font&gt;" style="text;html=1;resizable=0;autosize=1;align=center;verticalAlign=middle;points=[];fillColor=none;strokeColor=none;rounded=0;" vertex="1" parent="1">
          <mxGeometry x="390" y="20" width="350" height="20" as="geometry" />
        </mxCell>
        <mxCell id="3ZGjx4XU49EVozfAazmH-43" value="&lt;p style=&quot;margin: 0.5em 0px ; font-family: sans-serif ; font-size: 14px ; background-color: rgb(255 , 255 , 255)&quot;&gt;&lt;br&gt;&lt;/p&gt;" style="text;html=1;resizable=0;autosize=1;align=center;verticalAlign=middle;points=[];fillColor=none;strokeColor=none;rounded=0;" vertex="1" parent="1">
          <mxGeometry x="520" y="245" width="20" height="30" as="geometry" />
        </mxCell>
        <mxCell id="3ZGjx4XU49EVozfAazmH-44" value="&lt;font style=&quot;font-size: 16px&quot;&gt;&amp;nbsp;Teoria della meccanica attualmente più completa, in grado di descrivere il comportamento della materia, della radiazione e le reciproche interazioni&lt;br&gt;&amp;nbsp;con particolare riguardo ai fenomeni caratteristici della scala di lunghezza o di energia atomica e subatomica, dove le precedenti teorie classiche risultano &lt;br&gt;&amp;nbsp;inadeguate.&lt;/font&gt;" style="text;html=1;resizable=0;autosize=1;align=left;verticalAlign=middle;points=[];fillColor=none;strokeColor=none;rounded=0;" vertex="1" parent="1">
          <mxGeometry x="40" y="120" width="1110" height="50" as="geometry" />
        </mxCell>
        <mxCell id="3ZGjx4XU49EVozfAazmH-46" value="&lt;font style=&quot;font-size: 16px&quot;&gt;Disciplina che studia le quantità, lo spazio, le strutture e i calcoli. Per l&#39;origine del termine occorre andare al vocabolo egizio &quot;maat&quot;, nella cui composizione &lt;br&gt;appare il simbolo del cubito, strumento di misura lineare, un primo accostamento al concetto matematico.&amp;nbsp;La scienza esatta per antonomasia.&lt;/font&gt;" style="text;html=1;resizable=0;autosize=1;align=left;verticalAlign=middle;points=[];fillColor=none;strokeColor=none;rounded=0;" vertex="1" parent="1">
          <mxGeometry x="40" y="240" width="1110" height="40" as="geometry" />
        </mxCell>
        <mxCell id="3ZGjx4XU49EVozfAazmH-47" value="" style="shape=image;html=1;verticalAlign=top;verticalLabelPosition=bottom;labelBackgroundColor=#ffffff;imageAspect=0;aspect=fixed;image=https://cdn4.iconfinder.com/data/icons/essential-app-2/16/next-right-arrow-botton-128.png" vertex="1" parent="1">
          <mxGeometry x="1130" y="170" width="20" height="20" as="geometry" />
        </mxCell>
        <mxCell id="3ZGjx4XU49EVozfAazmH-48" value="" style="shape=image;html=1;verticalAlign=top;verticalLabelPosition=bottom;labelBackgroundColor=#ffffff;imageAspect=0;aspect=fixed;image=https://cdn4.iconfinder.com/data/icons/essential-app-2/16/next-right-arrow-botton-128.png" vertex="1" parent="1">
          <mxGeometry x="1130" y="280" width="20" height="20" as="geometry" />
        </mxCell>
        <mxCell id="3ZGjx4XU49EVozfAazmH-49" value="&lt;font style=&quot;font-size: 24px&quot;&gt;Corso fisica quantistica&lt;/font&gt;" style="text;html=1;resizable=0;autosize=1;align=left;verticalAlign=middle;points=[];fillColor=none;strokeColor=none;rounded=0;" vertex="1" parent="1">
          <mxGeometry x="40" y="90" width="260" height="20" as="geometry" />
        </mxCell>
        <mxCell id="3ZGjx4XU49EVozfAazmH-50" value="&lt;font style=&quot;font-size: 24px&quot;&gt;Corso intensivo sulla matematica&amp;nbsp;&lt;/font&gt;" style="text;html=1;resizable=0;autosize=1;align=center;verticalAlign=middle;points=[];fillColor=none;strokeColor=none;rounded=0;" vertex="1" parent="1">
          <mxGeometry x="30" y="220" width="370" height="20" as="geometry" />
        </mxCell>
        <mxCell id="3ZGjx4XU49EVozfAazmH-51" value="&lt;span style=&quot;font-size: 24px&quot;&gt;Corso intensivo sulla biochimica&amp;nbsp;&lt;/span&gt;" style="text;html=1;resizable=0;autosize=1;align=center;verticalAlign=middle;points=[];fillColor=none;strokeColor=none;rounded=0;" vertex="1" parent="1">
          <mxGeometry x="30" y="340" width="360" height="20" as="geometry" />
        </mxCell>
        <mxCell id="3ZGjx4XU49EVozfAazmH-52" value="&lt;span style=&quot;color: rgba(0 , 0 , 0 , 0) ; font-family: monospace ; font-size: 0px&quot;&gt;%3CmxGraphModel%3E%3Croot%3E%3CmxCell%20id%3D%220%22%2F%3E%3CmxCell%20id%3D%221%22%20parent%3D%220%22%2F%3E%3CmxCell%20id%3D%222%22%20value%3D%22%26lt%3Bfont%20style%3D%26quot%3Bfont-size%3A%2016px%26quot%3B%26gt%3BDisciplina%20che%20studia%20le%20quantit%C3%A0%2C%20lo%20spazio%2C%20le%20strutture%20e%20i%20calcoli.%20Per%20l&#39;origine%20del%20termine%20occorre%20andare%20al%20vocabolo%20egizio%20%26quot%3Bmaat%26quot%3B%2C%20nella%20cui%20composizione%20%26lt%3Bbr%26gt%3Bappare%20il%20simbolo%20del%20cubito%2C%20strumento%20di%20misura%20lineare%2C%20un%20primo%20accostamento%20al%20concetto%20matematico.%26amp%3Bnbsp%3BLa%20scienza%20esatta%20per%20antonomasia.%26lt%3B%2Ffont%26gt%3B%22%20style%3D%22text%3Bhtml%3D1%3Bresizable%3D0%3Bautosize%3D1%3Balign%3Dleft%3BverticalAlign%3Dmiddle%3Bpoints%3D%5B%5D%3BfillColor%3Dnone%3BstrokeColor%3Dnone%3Brounded%3D0%3B%22%20vertex%3D%221%22%20parent%3D%221%22%3E%3CmxGeometry%20x%3D%2240%22%20y%3D%22240%22%20width%3D%221110%22%20height%3D%2240%22%20as%3D%22geometry%22%2F%3E%3C%2FmxCell%3E%3C%2Froot%3E%3C%2FmxGraphModel%3E&lt;/span&gt;&lt;span style=&quot;color: rgba(0 , 0 , 0 , 0) ; font-family: monospace ; font-size: 0px&quot;&gt;%3CmxGraphModel%3E%3Croot%3E%3CmxCell%20id%3D%220%22%2F%3E%3CmxCell%20id%3D%221%22%20parent%3D%220%22%2F%3E%3CmxCell%20id%3D%222%22%20value%3D%22%26lt%3Bfont%20style%3D%26quot%3Bfont-size%3A%2016px%26quot%3B%26gt%3BDisciplina%20che%20studia%20le%20quantit%C3%A0%2C%20lo%20spazio%2C%20le%20strutture%20e%20i%20calcoli.%20Per%20l&#39;origine%20del%20termine%20occorre%20andare%20al%20vocabolo%20egizio%20%26quot%3Bmaat%26quot%3B%2C%20nella%20cui%20composizione%20%26lt%3Bbr%26gt%3Bappare%20il%20simbolo%20del%20cubito%2C%20strumento%20di%20misura%20lineare%2C%20un%20primo%20accostamento%20al%20concetto%20matematico.%26amp%3Bnbsp%3BLa%20scienza%20esatta%20per%20antonomasia.%26lt%3B%2Ffont%26gt%3B%22%20style%3D%22text%3Bhtml%3D1%3Bresizable%3D0%3Bautosize%3D1%3Balign%3Dleft%3BverticalAlign%3Dmiddle%3Bpoints%3D%5B%5D%3BfillColor%3Dnone%3BstrokeColor%3Dnone%3Brounded%3D0%3B%22%20vertex%3D%221%22%20parent%3D%221%22%3E%3CmxGeometry%20x%3D%2240%22%20y%3D%22240%22%20width%3D%221110%22%20height%3D%2240%22%20as%3D%22geometry%22%2F%3E%3C%2FmxCell%3E%3C%2Froot%3E%3C%2FmxGraphModel%3E&lt;/span&gt;" style="text;html=1;resizable=0;autosize=1;align=center;verticalAlign=middle;points=[];fillColor=none;strokeColor=none;rounded=0;" vertex="1" parent="1">
          <mxGeometry x="340" y="270" width="20" height="20" as="geometry" />
        </mxCell>
        <mxCell id="3ZGjx4XU49EVozfAazmH-53" value="&lt;span style=&quot;color: rgb(32 , 33 , 36) ; font-family: &amp;#34;arial&amp;#34; , sans-serif ; font-size: 16px ; background-color: rgb(255 , 255 , 255)&quot;&gt;La&amp;nbsp;&lt;/span&gt;&lt;b style=&quot;color: rgb(32 , 33 , 36) ; font-family: &amp;#34;arial&amp;#34; , sans-serif ; font-size: 16px ; background-color: rgb(255 , 255 , 255)&quot;&gt;biochimica&lt;/b&gt;&lt;span style=&quot;color: rgb(32 , 33 , 36) ; font-family: &amp;#34;arial&amp;#34; , sans-serif ; font-size: 16px ; background-color: rgb(255 , 255 , 255)&quot;&gt;&amp;nbsp;o chimica biologica è la branca della chimica che studia le reazioni chimiche complesse che danno origine alla vita: oggetto di studio sono&lt;br&gt;la struttura e le trasformazioni dei componenti delle cellule, come proteine, carboidrati, lipidi, acidi nucleici e altre biomolecole.&lt;/span&gt;" style="text;html=1;resizable=0;autosize=1;align=left;verticalAlign=middle;points=[];fillColor=none;strokeColor=none;rounded=0;" vertex="1" parent="1">
          <mxGeometry x="40" y="360" width="1100" height="40" as="geometry" />
        </mxCell>
        <mxCell id="3ZGjx4XU49EVozfAazmH-55" value="" style="shape=image;html=1;verticalAlign=top;verticalLabelPosition=bottom;labelBackgroundColor=#ffffff;imageAspect=0;aspect=fixed;image=https://cdn4.iconfinder.com/data/icons/essential-app-2/16/next-right-arrow-botton-128.png" vertex="1" parent="1">
          <mxGeometry x="1130" y="400" width="20" height="20" as="geometry" />
        </mxCell>
      </root>
    </mxGraphModel>
  </diagram>
</mxfile>
